<svg xmlns="http://www.w3.org/2000/svg" viewBox="0 0 512 128" width="512" height="128" role="img" aria-label="claim-dog">
  <!-- icon -->
  <g transform="translate(6,11) scale(0.82)">
    <path d="M40 36 C18 34, 12 64, 22 88 C27 100, 44 96, 47 76 C49 60, 50 46, 40 36 Z" fill="#7A4A2B"/>
    <path d="M88 36 C110 34, 116 64, 106 88 C101 100, 84 96, 81 76 C79 60, 78 46, 88 36 Z" fill="#7A4A2B"/>
    <circle cx="64" cy="56" r="32" fill="#D99A5B"/>
    <path d="M64 28 C55 30, 53 46, 56 62 C58 72, 61 78, 64 79 C67 78, 70 72, 72 62 C75 46, 73 30, 64 28 Z" fill="#FBEBD6"/>
    <ellipse cx="64" cy="69" rx="17" ry="12" fill="#FBEBD6"/>
    <ellipse cx="45" cy="66" rx="6" ry="3.5" fill="#E86A5C" opacity="0.25"/>
    <ellipse cx="83" cy="66" rx="6" ry="3.5" fill="#E86A5C" opacity="0.25"/>
    <ellipse cx="52" cy="55" rx="5.5" ry="6.5" fill="#2E2A29"/>
    <ellipse cx="76" cy="55" rx="5.5" ry="6.5" fill="#2E2A29"/>
    <circle cx="53.6" cy="52.5" r="1.8" fill="#fff"/>
    <circle cx="77.6" cy="52.5" r="1.8" fill="#fff"/>
    <ellipse cx="64" cy="63" rx="6.5" ry="4.8" fill="#2E2A29"/>
    <circle cx="61.8" cy="61.4" r="1.3" fill="#fff" opacity="0.55"/>
    <path d="M64 67 L64 71 M64 71 C59 76, 53 74, 52 69 M64 71 C69 76, 75 74, 76 69" fill="none" stroke="#2E2A29" stroke-width="2.4" stroke-linecap="round"/>
    <rect x="60" y="72" width="8" height="8" rx="4" fill="#E86A5C"/>
    <path d="M64 74 L64 78" stroke="#BE4C3E" stroke-width="1" stroke-linecap="round"/>
    <rect x="41" y="85" width="46" height="9" rx="4.5" fill="#2BB3A3"/>
    <path d="M64 94 L64 98" stroke="#2BB3A3" stroke-width="2.5" stroke-linecap="round"/>
    <circle cx="64" cy="106" r="9" fill="#E86A5C"/>
    <path d="M59.6 106 l3 3.2 l6 -7" fill="none" stroke="#fff" stroke-width="2.6" stroke-linecap="round" stroke-linejoin="round"/>
  </g>
  <!-- wordmark -->
  <text x="122" y="80" font-family="system-ui,-apple-system,'Segoe UI',Roboto,'Helvetica Neue',Arial,sans-serif" font-weight="800" font-size="52" letter-spacing="-0.5" fill="#2E2A29">claim<tspan fill="#E86A5C">-dog</tspan></text>
  <!-- little directed graph: claim -> claim -> cleared -->
  <g stroke="#2BB3A3" stroke-width="2.5">
    <circle cx="404" cy="60" r="6" fill="none"/>
    <line x1="410" y1="60" x2="422" y2="60"/>
    <circle cx="432" cy="60" r="6" fill="none"/>
    <line x1="438" y1="60" x2="450" y2="60"/>
  </g>
  <path d="M424 60 l-6 -3 v6 Z" fill="#2BB3A3" stroke="none"/>
  <path d="M452 60 l-6 -3 v6 Z" fill="#2BB3A3" stroke="none"/>
  <circle cx="462" cy="60" r="8" fill="#E86A5C"/>
  <path d="M457.5 60 l3 3 l6 -6.5" fill="none" stroke="#fff" stroke-width="2.4" stroke-linecap="round" stroke-linejoin="round"/>
</svg>
